<svg xmlns="http://www.w3.org/2000/svg" version="1.1" xmlns:xlink="http://www.w3.org/1999/xlink" xmlns:svgjs="http://svgjs.dev/svgjs" width="100%" height="100%" viewBox="0 0 1000 600"><rect width="1000" height="600" x="0" y="0" fill="#f4efea"/><g><circle r="166.66666666666666" cx="533.4633585611979" cy="555.6856209680934" fill="#7d141d" transform="matrix(0.34078822363694694,0,0,0.3407882236369469,0,110.62888606302818)"/><path d="M517.6947992552122 546.7770894893206L517.6947992552122 546.7770894893206L510.58067680641716 569.6439116461615L555.6473721405246 569.6439116461615L548.5650091669474 546.7770894893206Q544.4362773886289 534.200337303058 540.7839377385781 521.718863542449Q537.131598088527 509.26914925705773 533.4474989632581 496.21600494252766L533.4474989632581 496.21600494252766L532.5582336571588 496.21600494252766Q529.1282103336326 509.26914925705773 525.4441112083638 521.718863542449Q521.7917715583128 534.200337303058 517.6947992552122 546.7770894893206ZM491.39795377484495 630.6856230148398L471.96115494153014 630.6856230148398L522.71279633963 480.68562156100654L544.2139610621041 480.68562156100654L594.9656024602041 630.6856230148398L574.6077788455719 630.6856230148398L560.4430528984176 584.9519787011579L505.78499604852414 584.9519787011579L491.39795377484495 630.6856230148398Z " fill="#f4efea" transform="matrix(0.34078822363694694,0,0,0.3407882236369469,0,110.62888606302818)"/><path d="M824.9062040107112 552.1744952982311L824.9062040107112 552.1744952982311L818.4595423283288 572.8959078487464L859.297992896636 572.8959078487464L852.8801109539069 552.1744952982311Q849.1387447989528 540.7777183954477 845.829074738801 529.4672807116249Q842.5194046786493 518.1856227674555 839.180954878844 506.3571497698696L839.180954878844 506.3571497698696L838.3751221685462 506.3571497698696Q835.2669102859688 518.1856227674555 831.9284604861637 529.4672807116249Q828.6187904260119 540.7777183954477 824.9062040107112 552.1744952982311ZM801.0765795776188 628.2105674627608L783.4633789096806 628.2105674627608L829.4534028759632 492.2838570793113L848.9372866213782 492.2838570793113L894.9273105876608 628.2105674627608L876.4794974697716 628.2105674627608L863.6437335843134 586.7677423617301L814.1138016406512 586.7677423617301L801.0765795776188 628.2105674627608ZM941.3490306487457 630.6856250729613L941.3490306487457 630.6856250729613Q933.261923806114 630.6856250729613 927.7649935322968 628.2105674627608Q922.2968429981331 625.7355098525604 918.8720539793674 621.3609894252293Q915.4472649606016 617.0152487375519 914.008277977927 610.7988249723974Q912.5405112555989 604.5824012072426 912.5405112555989 597.128448636988L912.5405112555989 597.128448636988L912.5405112555989 541.3820929281711L897.6326061150892 541.3820929281711L897.6326061150892 528.5463290427131L913.3751237055501 527.5102584151873L915.4472649606016 499.33489329441716L929.7507955683878 499.33489329441716L929.7507955683878 527.5102584151873L956.8900900616322 527.5102584151873L956.8900900616322 541.3820929281711L929.7507955683878 541.3820929281711L929.7507955683878 597.3299068145623Q929.7507955683878 606.6545424622941 933.1755845871536 611.7485563809626Q936.5715938662659 616.8137905599774 945.2918549812744 616.8137905599774L945.2918549812744 616.8137905599774Q947.9683707690492 616.8137905599774 951.0765826516265 615.9791781100262Q954.1847945342038 615.1445656600747 956.6886318840577 614.108495032549L956.6886318840577 614.108495032549L959.9983019442095 626.9730386576607Q955.8540194341065 628.4120256403353 950.990243432666 629.563215226475Q946.1264674312257 630.6856250729613 941.3490306487457 630.6856250729613ZM996.6636902627602 628.2105674627608L979.6836438671991 628.2105674627608L979.6836438671991 480.6856219989534L996.6636902627602 480.6856219989534L996.6636902627602 520.8621385552303L996.0593157300368 541.5835511057455Q1003.3118101227171 534.7627528078676 1011.1686790481209 529.8989768064273Q1019.054327713178 525.0064210653334 1029.6164921660102 525.0064210653334L1029.6164921660102 525.0064210653334Q1045.589247673699 525.0064210653334 1052.9280812853399 534.9642109854422Q1060.2956946366342 544.9220009055508 1060.2956946366342 564.3771049113124L1060.2956946366342 564.3771049113124L1060.2956946366342 628.2105674627608L1043.2868685014196 628.2105674627608L1043.2868685014196 566.6794840835919Q1043.2868685014196 552.3759534758055 1038.7396696361675 546.044410752037Q1034.1924707709156 539.7416477679219 1024.2346808508069 539.7416477679219L1024.2346808508069 539.7416477679219Q1016.3490321857497 539.7416477679219 1010.362846337823 543.655692360797Q1004.3478807502429 547.5985166933257 996.6636902627602 555.2827071808085L996.6636902627602 555.2827071808085L996.6636902627602 628.2105674627608ZM1115.6103542506485 630.6856250729613L1115.6103542506485 630.6856250729613Q1102.976048542765 630.6856250729613 1094.5723645639448 623.2316725027065Q1086.1974603247781 615.7777199324516 1086.1974603247781 602.1073435970422L1086.1974603247781 602.1073435970422Q1086.1974603247781 585.5302135566301 1100.9039072877135 576.723613222661Q1115.6103542506485 567.9170128886919 1147.9300018815218 564.3771049113124L1147.9300018815218 564.3771049113124Q1147.9300018815218 559.6284478684859 1147.00905021261 555.0524692635804Q1146.0880985436982 550.5052703983285 1143.7857193714187 546.9941421606023Q1141.5121199387927 543.4542341832226 1137.4829563873036 541.2957537092107Q1133.425013096161 539.1084934955452 1127.2085893310064 539.1084934955452L1127.2085893310064 539.1084934955452Q1118.5171079556515 539.1084934955452 1110.861697207822 542.4181635556969Q1103.1775067203394 545.7278336158486 1097.1625411327593 549.8721161259516L1097.1625411327593 549.8721161259516L1090.5432010124557 538.0724228680194Q1097.5942372275617 533.5252240027673 1107.7534853252448 529.2658225340504Q1117.8839536832745 525.0064210653334 1130.1153430360093 525.0064210653334L1130.1153430360093 525.0064210653334Q1148.5631561538985 525.0064210653334 1156.8517211741048 536.3168587491563Q1165.1402861943109 547.5985166933257 1165.1402861943109 566.4492461663639L1165.1402861943109 566.4492461663639L1165.1402861943109 628.2105674627608L1151.038213764099 628.2105674627608L1149.5992267814242 616.1806362876005L1148.9660725090475 616.1806362876005Q1141.7135781163672 622.1956018751807 1133.425013096161 626.4550033438977Q1125.1364480759548 630.6856250729613 1115.6103542506485 630.6856250729613ZM1120.589249210703 617.0152487375519L1120.589249210703 617.0152487375519Q1127.8417436033833 617.0152487375519 1134.2596255461124 613.5904597187862Q1140.6775074888415 610.194450439674 1147.9300018815218 603.5463305797168L1147.9300018815218 603.5463305797168L1147.9300018815218 575.5724236365213Q1135.2956961736381 577.241648536424 1126.6905540172436 579.5152479690498Q1118.1141916005026 581.7888474016759 1112.8187195042597 584.8970592842531Q1107.523247408017 588.0052711668304 1105.1633087564305 592.0632144579731Q1102.7745903651905 596.0923780094622 1102.7745903651905 600.869814791942L1102.7745903651905 600.869814791942Q1102.7745903651905 609.5612961672971 1107.9549435028193 613.3026623222513Q1113.1352966404481 617.0152487375519 1120.589249210703 617.0152487375519ZM1213.8356056880216 628.2105674627608L1196.8555592924606 628.2105674627608L1196.8555592924606 527.5102584151873L1210.9288519830188 527.5102584151873L1212.396618705347 545.7278336158486L1213.0009932380704 545.7278336158486Q1218.1813463756994 536.2017397905422 1225.5489597269934 530.6184702977646Q1232.8877933386343 525.0064210653334 1241.6080544536428 525.0064210653334L1241.6080544536428 525.0064210653334Q1247.623020041223 525.0064210653334 1252.3716770840495 527.0785623203849L1252.3716770840495 527.0785623203849L1249.0620070238976 542.015247200548Q1246.5869494136973 541.1806347505967 1244.5148081586458 540.7777183954477Q1242.4426669035943 540.3460223006454 1239.3344550210168 540.3460223006454L1239.3344550210168 540.3460223006454Q1232.8877933386343 540.3460223006454 1225.9518760821425 545.5263754382742Q1219.0159588256506 550.7067285759031 1213.8356056880216 563.5712722010146L1213.8356056880216 563.5712722010146L1213.8356056880216 628.2105674627608ZM1315.571985363121 628.2105674627608L1295.685185262557 628.2105674627608L1259.4227132991552 527.5102584151873L1277.0359139670934 527.5102584151873L1296.088101617706 584.6956011066786Q1298.3904807899853 592.1495536769335 1300.750419441572 599.6035062471883Q1303.1391378328117 607.0862385570965 1305.412737265438 614.3387329497771L1305.412737265438 614.3387329497771L1306.2473497153892 614.3387329497771Q1308.520949148015 607.0862385570965 1310.8233283202946 599.6035062471883Q1313.0969277529207 592.1495536769335 1315.3705271855465 584.6956011066786L1315.3705271855465 584.6956011066786L1334.4227148361592 527.5102584151873L1351.2300827937993 527.5102584151873L1315.571985363121 628.2105674627608ZM1389.7661541898271 630.6856250729613L1389.7661541898271 630.6856250729613Q1377.1318484819435 630.6856250729613 1368.7281645031235 623.2316725027065Q1360.3244805243035 615.7777199324516 1360.3244805243035 602.1073435970422L1360.3244805243035 602.1073435970422Q1360.3244805243035 585.5302135566301 1375.059707226892 576.723613222661Q1389.7661541898271 567.9170128886919 1422.0858018207002 564.3771049113124L1422.0858018207002 564.3771049113124Q1422.0858018207002 559.6284478684859 1421.1648501517886 555.0524692635804Q1420.2151187432232 550.5052703983285 1417.9415193105972 546.9941421606023Q1415.6679198779714 543.4542341832226 1411.6099765868287 541.2957537092107Q1407.5808130353396 539.1084934955452 1401.364389270185 539.1084934955452L1401.364389270185 539.1084934955452Q1392.67290789483 539.1084934955452 1384.9887174073472 542.4181635556969Q1377.333306659518 545.7278336158486 1371.3183410719378 549.8721161259516L1371.3183410719378 549.8721161259516L1364.6990009516344 538.0724228680194Q1371.7212574270868 533.5252240027673 1381.88050552477 529.2658225340504Q1392.039753622453 525.0064210653334 1404.2711429751878 525.0064210653334L1404.2711429751878 525.0064210653334Q1422.7189560930772 525.0064210653334 1431.0075211132832 536.3168587491563Q1439.2960861334893 547.5985166933257 1439.2960861334893 566.4492461663639L1439.2960861334893 566.4492461663639L1439.2960861334893 628.2105674627608L1425.1940137032777 628.2105674627608L1423.755026720603 616.1806362876005L1423.1218724482262 616.1806362876005Q1415.8693780555457 622.1956018751807 1407.5808130353396 626.4550033438977Q1399.2922480151335 630.6856250729613 1389.7661541898271 630.6856250729613ZM1394.7450491498814 617.0152487375519L1394.7450491498814 617.0152487375519Q1401.997543542562 617.0152487375519 1408.4154254852908 613.5904597187862Q1414.8333074280201 610.194450439674 1422.0858018207002 603.5463305797168L1422.0858018207002 603.5463305797168L1422.0858018207002 575.5724236365213Q1409.4514961128166 577.241648536424 1400.846353956422 579.5152479690498Q1392.2412118000277 581.7888474016759 1386.974519443438 584.8970592842531Q1381.6790473471956 588.0052711668304 1379.2903289559556 592.0632144579731Q1376.9016105647156 596.0923780094622 1376.9016105647156 600.869814791942L1376.9016105647156 600.869814791942Q1376.9016105647156 609.5612961672971 1382.0819637023444 613.3026623222513Q1387.2623168399732 617.0152487375519 1394.7450491498814 617.0152487375519ZM1484.883193744623 538.9070353179707L1474.5224874693654 538.9070353179707L1471.1840376695602 504.28500851481806L1470.5796631368369 485.2328208642054L1488.7972383374981 485.2328208642054L1488.1928638047748 504.28500851481806L1484.883193744623 538.9070353179707ZM1544.7450522238894 630.6856250729613L1544.7450522238894 630.6856250729613Q1533.9814295934827 630.6856250729613 1524.253877590602 626.7715804800862Q1514.4975458480678 622.8287561475574 1507.2450514553873 616.8137905599774L1507.2450514553873 616.8137905599774L1515.7350746531679 605.417013657194Q1522.383194513125 610.7988249723974 1529.3191117696167 614.108495032549Q1536.255029026109 617.4469448323543 1545.3782064962663 617.4469448323543L1545.3782064962663 617.4469448323543Q1555.3359964163749 617.4469448323543 1560.2861116367758 612.8709662274489Q1565.2650065968303 608.3237673621968 1565.2650065968303 601.6756475022398L1565.2650065968303 601.6756475022398Q1565.2650065968303 597.7616029093647 1563.1928653417785 594.8548492043619Q1561.1207240867273 591.9480954993592 1557.9261729851894 589.7608352856935Q1554.702842143998 587.6023548116816 1550.558559633895 585.9331299117789Q1546.4142771237919 584.2926847515298 1542.2699946136888 582.6234598516271L1542.2699946136888 582.6234598516271Q1536.8881832984855 580.7527767741501 1531.5063719832822 578.3640583829101Q1526.0957809284257 576.0041197313237 1521.865159199362 572.579330712558Q1517.6057577306449 569.1545416937922 1514.92924194287 564.6073428285404Q1512.2239464154418 560.0313642236349 1512.2239464154418 553.6134822809058L1512.2239464154418 553.6134822809058Q1512.2239464154418 547.5985166933257 1514.6126648066818 542.3318243367364Q1517.0013831979215 537.0363522404937 1521.4334631045597 533.208646866579Q1525.8943227508512 529.3809414926643 1532.3122046935803 527.1936812789988Q1538.7588663759627 525.0064210653334 1546.817193478941 525.0064210653334L1546.817193478941 525.0064210653334Q1556.3720670439006 525.0064210653334 1564.3440549279183 528.3448708651385Q1572.316042811936 531.6545409252903 1578.1295502219416 536.4031979681167L1578.1295502219416 536.4031979681167L1570.04244337931 547.1956003381767Q1564.8620902416812 543.2527760056482 1559.25004100925 540.7777183954477Q1553.6667715164724 538.2738810455937 1547.0474313961688 538.2738810455937L1547.0474313961688 538.2738810455937Q1537.492557831209 538.2738810455937 1533.0604779245712 542.6196217332713Q1528.5996182782794 546.9941421606023 1528.5996182782794 552.7788698309546L1528.5996182782794 552.7788698309546Q1528.5996182782794 556.3187778083343 1530.4703013557566 558.9089543771486Q1532.3122046935803 561.4991309459631 1535.4204165761575 563.4561532424007Q1538.5286284587348 565.4131755388381 1542.5865717498775 566.9672814801268Q1546.6157353013664 568.5213874214155 1550.961475989044 570.190612321318L1550.961475989044 570.190612321318Q1556.3720670439006 572.2627535763695 1561.8402175780645 574.5363530089955Q1567.3371478518818 576.8099524416216 1571.6828885395591 580.2347414603873Q1576.05740896689 583.6595304791529 1578.849043713279 588.6384254392074Q1581.6406784596682 593.6173203992616 1581.6406784596682 600.6395768747141L1581.6406784596682 600.6395768747141Q1581.6406784596682 606.8560006398686 1579.251960068428 612.2665916947255Q1576.863241677188 617.6484030099286 1572.2009238533221 621.7926855200317Q1567.5386060294563 625.9369680301347 1560.6026887729643 628.3256864213747Q1553.6667715164724 630.6856250729613 1544.7450522238894 630.6856250729613ZM1699.7527299976052 630.6856250729613L1699.7527299976052 630.6856250729613Q1686.916966112147 630.6856250729613 1676.1245637420868 625.9369680301347Q1665.3609411116804 621.159531247655 1657.3889532276628 612.1514727361114Q1649.3881856039916 603.143414224568 1644.9561056973537 589.9910732029216Q1640.495246051062 576.8099524416216 1640.495246051062 560.2328224012093L1640.495246051062 560.2328224012093Q1640.495246051062 543.8859302780251 1645.042444916314 530.819928475339Q1649.6184235212195 517.753926672653 1657.676750624198 508.65952894214905Q1665.7638574668294 499.5363514719916 1676.7577180144638 494.67257547055124Q1687.722798822445 489.78001972945736 1700.7888006251308 489.78001972945736L1700.7888006251308 489.78001972945736Q1713.2216481554399 489.78001972945736 1722.661402761786 494.8740336481257Q1732.0723776284783 499.93926782714055 1738.0873432160583 506.58738768709753L1738.0873432160583 506.58738768709753L1728.7627075683265 517.753926672653Q1723.3808962531232 511.9691990023008 1716.5313182155917 508.4292910249211Q1709.7105199177138 504.9181627871949 1700.990258802705 504.9181627871949L1700.990258802705 504.9181627871949Q1691.2627067998244 504.9181627871949 1683.3770581347674 508.74586816110957Q1675.5201892093635 512.5735735350241 1669.9081399769323 519.739728708744Q1664.3248704841546 526.8771041428104 1661.302997820538 537.0363522404937Q1658.3099048965744 547.1956003381767 1658.3099048965744 559.8299060460604L1658.3099048965744 559.8299060460604Q1658.3099048965744 572.6656699315186 1661.302997820538 582.9400369878156Q1664.3248704841546 593.1856243044592 1669.706681799358 600.4381186971395Q1675.088493114561 607.6906130898201 1682.8590228210044 611.6334374223486Q1690.6295525274475 615.5762617548771 1700.3858842699817 615.5762617548771L1700.3858842699817 615.5762617548771Q1710.3148944504371 615.5762617548771 1717.768847020692 611.5183184637347Q1725.2515793306002 607.4891549122456 1731.8709194509038 600.2366605195652L1731.8709194509038 600.2366605195652L1741.39701327621 611.0002831499717Q1733.3099064335786 620.3249187977035 1723.179438075549 625.5052719353325Q1713.0201899778656 630.6856250729613 1699.7527299976052 630.6856250729613ZM1782.0052259272893 628.2105674627608L1765.025179531728 628.2105674627608L1765.025179531728 480.6856219989534L1782.0052259272893 480.6856219989534L1782.0052259272893 520.8621385552303L1781.4008513945662 541.5835511057455Q1788.6533457872463 534.7627528078676 1796.5102147126502 529.8989768064273Q1804.3958633777072 525.0064210653334 1814.9580278305395 525.0064210653334L1814.9580278305395 525.0064210653334Q1830.9307833382284 525.0064210653334 1838.2696169498693 534.9642109854422Q1845.6372303011633 544.9220009055508 1845.6372303011633 564.3771049113124L1845.6372303011633 564.3771049113124L1845.6372303011633 628.2105674627608L1828.6284041659485 628.2105674627608L1828.6284041659485 566.6794840835919Q1828.6284041659485 552.3759534758055 1824.0812053006969 546.044410752037Q1819.5340064354448 539.7416477679219 1809.5762165153358 539.7416477679219L1809.5762165153358 539.7416477679219Q1801.6905678502787 539.7416477679219 1795.704382002352 543.655692360797Q1789.6894164147723 547.5985166933257 1782.0052259272893 555.2827071808085L1782.0052259272893 555.2827071808085L1782.0052259272893 628.2105674627608ZM1918.5650905831155 630.6856250729613L1918.5650905831155 630.6856250729613Q1908.4058424854327 630.6856250729613 1899.5992421514636 627.059377876621Q1890.7926418174945 623.433130680281 1884.2884206558053 616.6986716013635Q1877.755419754462 609.9642125224459 1874.0140535995076 600.2366605195652Q1870.3014671842072 590.5091085166844 1870.3014671842072 578.0762609863752L1870.3014671842072 578.0762609863752Q1870.3014671842072 565.6434134560661 1874.1291725581216 555.8007424945713Q1877.9568779320364 545.9580715330766 1884.2884206558053 539.1084934955452Q1890.5911836399202 532.2589154580137 1898.678290482552 528.6326682616735Q1906.7653973251834 525.0064210653334 1915.4568787005385 525.0064210653334L1915.4568787005385 525.0064210653334Q1924.9829725258448 525.0064210653334 1932.5520440547136 528.3448708651385Q1940.1211155835824 531.6545409252903 1945.186349762597 537.8709646904449Q1950.2803636812653 544.0873884555995 1952.9568794690406 552.7788698309546Q1955.6621749964686 561.4991309459631 1955.6621749964686 572.2627535763695L1955.6621749964686 572.2627535763695Q1955.6621749964686 574.968049103798 1955.547056037855 577.5582256726123Q1955.4607168188943 580.1484022414268 1955.029020724092 581.9903055792504L1955.029020724092 581.9903055792504L1887.0800554021941 581.9903055792504Q1888.1161260297197 598.1645192645137 1897.124184541263 607.6042738708595Q1906.1322430528064 617.0152487375519 1920.6372318381675 617.0152487375519L1920.6372318381675 617.0152487375519Q1927.8897262308476 617.0152487375519 1934.0198107770418 614.8567682635398Q1940.1211155835824 612.6695080498744 1945.70438507636 609.158379812148L1945.70438507636 609.158379812148L1951.7193506639403 620.3249187977035Q1945.1000105436367 624.4692013078068 1937.0129037010054 627.577413190384Q1928.9257968583736 630.6856250729613 1918.5650905831155 630.6856250729613ZM1886.8785972246194 569.7876959661692L1886.8785972246194 569.7876959661692L1940.7542698559594 569.7876959661692Q1940.7542698559594 554.4480947308571 1934.221268954616 546.4761068468395Q1927.6882680532733 538.4753392231682 1915.8885747953407 538.4753392231682L1915.8885747953407 538.4753392231682Q1910.4779837404842 538.4753392231682 1905.6142077390439 540.5474804782198Q1900.750431737603 542.6196217332713 1896.8076074050748 546.677565024414Q1892.864783072546 550.7067285759031 1890.274606503732 556.5202359859086Q1887.6844299349175 562.3049636562608 1886.8785972246194 569.7876959661692ZM2006.83255210038 630.6856250729613L2006.83255210038 630.6856250729613Q1996.0689294699735 630.6856250729613 1986.3413774670928 626.7715804800862Q1976.5850457245585 622.8287561475574 1969.332551331878 616.8137905599774L1969.332551331878 616.8137905599774L1977.8225745296588 605.417013657194Q1984.4706943896156 610.7988249723974 1991.4066116461074 614.108495032549Q1998.3425289025997 617.4469448323543 2007.465706372757 617.4469448323543L2007.465706372757 617.4469448323543Q2017.4234962928656 617.4469448323543 2022.3736115132667 612.8709662274489Q2027.352506473321 608.3237673621968 2027.352506473321 601.6756475022398L2027.352506473321 601.6756475022398Q2027.352506473321 597.7616029093647 2025.2803652182695 594.8548492043619Q2023.208223963218 591.9480954993592 2020.01367286168 589.7608352856935Q2016.7903420204887 587.6023548116816 2012.6460595103856 585.9331299117789Q2008.5017770002826 584.2926847515298 2004.35749449018 582.6234598516271L2004.35749449018 582.6234598516271Q1998.9756831749767 580.7527767741501 1993.593871859773 578.3640583829101Q1988.1832808049164 576.0041197313237 1983.952659075853 572.579330712558Q1979.693257607136 569.1545416937922 1977.0167418193607 564.6073428285404Q1974.3114462919327 560.0313642236349 1974.3114462919327 553.6134822809058L1974.3114462919327 553.6134822809058Q1974.3114462919327 547.5985166933257 1976.7001646831725 542.3318243367364Q1979.0888830744127 537.0363522404937 1983.5209629810504 533.208646866579Q1987.9818226273417 529.3809414926643 1994.399704570071 527.1936812789988Q2000.8463662524534 525.0064210653334 2008.9046933554316 525.0064210653334L2008.9046933554316 525.0064210653334Q2018.4595669203916 525.0064210653334 2026.4315548044094 528.3448708651385Q2034.4035426884268 531.6545409252903 2040.2170500984323 536.4031979681167L2040.2170500984323 536.4031979681167L2032.129943255801 547.1956003381767Q2026.9495901181724 543.2527760056482 2021.3375408857407 540.7777183954477Q2015.7542713929631 538.2738810455937 2009.13493127266 538.2738810455937L2009.13493127266 538.2738810455937Q1999.5800577076996 538.2738810455937 1995.1479778010619 542.6196217332713Q1990.6871181547701 546.9941421606023 1990.6871181547701 552.7788698309546L1990.6871181547701 552.7788698309546Q1990.6871181547701 556.3187778083343 1992.5578012322474 558.9089543771486Q1994.399704570071 561.4991309459631 1997.5079164526485 563.4561532424007Q2000.6161283352255 565.4131755388381 2004.6740716263682 566.9672814801268Q2008.7032351778573 568.5213874214155 2013.0489758655347 570.190612321318L2013.0489758655347 570.190612321318Q2018.4595669203916 572.2627535763695 2023.9277174545552 574.5363530089955Q2029.4246477283725 576.8099524416216 2033.7703884160499 580.2347414603873Q2038.1449088433808 583.6595304791529 2040.9365435897696 588.6384254392074Q2043.7281783361589 593.6173203992616 2043.7281783361589 600.6395768747141L2043.7281783361589 600.6395768747141Q2043.7281783361589 606.8560006398686 2041.339459944919 612.2665916947255Q2038.9507415536789 617.6484030099286 2034.2884237298128 621.7926855200317Q2029.6261059059468 625.9369680301347 2022.690188649455 628.3256864213747Q2015.7542713929631 630.6856250729613 2006.83255210038 630.6856250729613ZM2093.66102663497 630.6856250729613L2093.66102663497 630.6856250729613Q2082.897404004563 630.6856250729613 2073.1410722620294 626.7715804800862Q2063.413520259148 622.8287561475574 2056.1610258664678 616.8137905599774L2056.1610258664678 616.8137905599774L2064.6510490642486 605.417013657194Q2071.2991689242053 610.7988249723974 2078.235086180697 614.108495032549Q2085.171003437189 617.4469448323543 2094.2941809073463 617.4469448323543L2094.2941809073463 617.4469448323543Q2104.2231910878018 617.4469448323543 2109.202086047856 612.8709662274489Q2114.180981007911 608.3237673621968 2114.180981007911 601.6756475022398L2114.180981007911 601.6756475022398Q2114.180981007911 597.7616029093647 2112.1088397528592 594.8548492043619Q2110.036698497808 591.9480954993592 2106.8133676566167 589.7608352856935Q2103.6188165550784 587.6023548116816 2099.4745340449754 585.9331299117789Q2095.3302515348723 584.2926847515298 2091.1859690247693 582.6234598516271L2091.1859690247693 582.6234598516271Q2085.8041577095664 580.7527767741501 2080.3935666547095 578.3640583829101Q2075.0117553395057 576.0041197313237 2070.7811336104423 572.579330712558Q2066.521732141726 569.1545416937922 2063.8164366142973 564.6073428285404Q2061.139920826522 560.0313642236349 2061.139920826522 553.6134822809058L2061.139920826522 553.6134822809058Q2061.139920826522 547.5985166933257 2063.5286392177622 542.3318243367364Q2065.8885778693484 537.0363522404937 2070.3494375156406 533.208646866579Q2074.810297161932 529.3809414926643 2081.2281791046607 527.1936812789988Q2087.6460610473896 525.0064210653334 2095.733167890022 525.0064210653334L2095.733167890022 525.0064210653334Q2105.2592617153277 525.0064210653334 2113.2600293389987 528.3448708651385Q2121.2320172230166 531.6545409252903 2127.016744893369 536.4031979681167L2127.016744893369 536.4031979681167L2118.9584177903907 547.1956003381767Q2113.7780646527617 543.2527760056482 2108.166015420331 540.7777183954477Q2102.5827459275524 538.2738810455937 2095.9346260675957 538.2738810455937L2095.9346260675957 538.2738810455937Q2086.4085322422898 538.2738810455937 2081.9476725959976 542.6196217332713Q2077.5155926893603 546.9941421606023 2077.5155926893603 552.7788698309546L2077.5155926893603 552.7788698309546Q2077.5155926893603 556.3187778083343 2079.3574960271835 558.9089543771486Q2081.2281791046607 561.4991309459631 2084.336390987238 563.4561532424007Q2087.4446028698158 565.4131755388381 2091.5025461609584 566.9672814801268Q2095.531709712447 568.5213874214155 2099.877450400124 570.190612321318L2099.877450400124 570.190612321318Q2105.2592617153277 572.2627535763695 2110.756191989145 574.5363530089955Q2116.2531222629623 576.8099524416216 2120.59886295064 580.2347414603873Q2124.944603638317 583.6595304791529 2127.76501812436 588.6384254392074Q2130.5566528707486 593.6173203992616 2130.5566528707486 600.6395768747141L2130.5566528707486 600.6395768747141Q2130.5566528707486 606.8560006398686 2128.1679344795084 612.2665916947255Q2125.779216088268 617.6484030099286 2121.116898264402 621.7926855200317Q2116.454580440537 625.9369680301347 2109.518663184045 628.3256864213747Q2102.5827459275524 630.6856250729613 2093.66102663497 630.6856250729613ZM2248.6687044086857 630.6856250729613L2248.6687044086857 630.6856250729613Q2235.804160783574 630.6856250729613 2225.0405381531673 625.9369680301347Q2214.2769155227606 621.159531247655 2206.2761478990897 612.1514727361114Q2198.304160015072 603.143414224568 2193.8433003687805 589.9910732029216Q2189.4112204621424 576.8099524416216 2189.4112204621424 560.2328224012093L2189.4112204621424 560.2328224012093Q2189.4112204621424 543.8859302780251 2193.958419327394 530.819928475339Q2198.5056181926466 517.753926672653 2206.592725035278 508.65952894214905Q2214.67983187791 499.5363514719916 2225.6736924255447 494.67257547055124Q2236.638773233525 489.78001972945736 2249.7047750362117 489.78001972945736L2249.7047750362117 489.78001972945736Q2262.137622566521 489.78001972945736 2271.548597433213 494.8740336481257Q2280.988352039559 499.93926782714055 2287.003317627139 506.58738768709753L2287.003317627139 506.58738768709753L2277.678681979407 517.753926672653Q2272.296870664203 511.9691990023008 2265.4472926266726 508.4292910249211Q2258.597714589141 504.9181627871949 2249.9062332137855 504.9181627871949L2249.9062332137855 504.9181627871949Q2240.178681210905 504.9181627871949 2232.2930325458483 508.74586816110957Q2224.407383880791 512.5735735350241 2218.824114388013 519.739728708744Q2213.2408448952356 526.8771041428104 2210.218972231618 537.0363522404937Q2207.2258793076553 547.1956003381767 2207.2258793076553 559.8299060460604L2207.2258793076553 559.8299060460604Q2207.2258793076553 572.6656699315186 2210.218972231618 582.9400369878156Q2213.2408448952356 593.1856243044592 2218.6226562104384 600.4381186971395Q2224.0044675256413 607.6906130898201 2231.7749972320853 611.6334374223486Q2239.5455269385284 615.5762617548771 2249.273078941409 615.5762617548771L2249.273078941409 615.5762617548771Q2259.2308688615176 615.5762617548771 2266.6848214317724 611.5183184637347Q2274.1387740020273 607.4891549122456 2280.786893861984 600.2366605195652L2280.786893861984 600.2366605195652L2290.312987687291 611.0002831499717Q2282.2258808446586 620.3249187977035 2272.066632746976 625.5052719353325Q2261.936164388946 630.6856250729613 2248.6687044086857 630.6856250729613ZM2331.957270965896 630.6856250729613L2331.957270965896 630.6856250729613Q2322.2297189630153 630.6856250729613 2318.0854364529123 624.900897402609Q2313.9411539428083 619.0873899926034 2313.9411539428083 607.8920712673944L2313.9411539428083 607.8920712673944L2313.9411539428083 480.6856219989534L2330.92120033837 480.6856219989534L2330.92120033837 609.158379812148Q2330.92120033837 613.3026623222513 2332.3889670606977 614.9431074825004Q2333.8279540433723 616.6123323824029 2335.6986371208495 616.6123323824029L2335.6986371208495 616.6123323824029Q2336.5332495708008 616.6123323824029 2337.2527430621385 616.6123323824029Q2337.9722365534763 616.6123323824029 2339.411223536151 616.1806362876005L2339.411223536151 616.1806362876005L2341.71360270843 629.0451799127122Q2340.0443778085273 629.8797923626635 2337.7707783759015 630.2827087178123Q2335.4971789432757 630.6856250729613 2331.957270965896 630.6856250729613ZM2396.1936498724926 630.6856250729613L2396.1936498724926 630.6856250729613Q2380.048215926883 630.6856250729613 2372.6806025755886 620.7566148925059Q2365.312989224295 610.7988249723974 2365.312989224295 591.3149412269822L2365.312989224295 591.3149412269822L2365.312989224295 527.5102584151873L2382.5232735370837 527.5102584151873L2382.5232735370837 589.0413417943562Q2382.5232735370837 603.3448724021425 2386.984133183375 609.676415125911Q2391.444992829667 615.9791781100262 2401.3740030101217 615.9791781100262L2401.3740030101217 615.9791781100262Q2409.259651675179 615.9791781100262 2415.2746172627594 611.9500145585371Q2421.2608031106856 607.8920712673944 2428.5132975033666 598.999131714465L2428.5132975033666 598.999131714465L2428.5132975033666 527.5102584151873L2445.5221236385805 527.5102584151873L2445.5221236385805 628.2105674627608L2431.420051208369 628.2105674627608L2429.9810642256944 612.4680498722998L2429.347909953318 612.4680498722998Q2422.2968737382116 620.7566148925059 2414.5263440317685 625.7355098525604Q2406.7558143253254 630.6856250729613 2396.1936498724926 630.6856250729613ZM2524.0620331529644 630.6856250729613L2524.0620331529644 630.6856250729613Q2517.010996937858 630.6856250729613 2509.44192540899 627.289615793849Q2501.8728538801206 623.8648267750832 2495.253513759817 617.8498611875032L2495.253513759817 617.8498611875032L2494.6203594874405 617.8498611875032L2493.181372504766 628.2105674627608L2479.510996169356 628.2105674627608L2479.510996169356 480.6856219989534L2496.4910425649177 480.6856219989534L2496.4910425649177 520.8621385552303L2496.0881262097682 539.1084934955452Q2502.9089245076466 533.0935279079649 2510.996031350279 529.0643643564758Q2519.08313819291 525.0064210653334 2527.573161390691 525.0064210653334L2527.573161390691 525.0064210653334Q2537.3007133935716 525.0064210653334 2544.7834457034796 528.6326682616735Q2552.2373982737345 532.2589154580137 2557.302632452749 538.9933745369311Q2562.396646371418 545.7278336158486 2564.986822940232 555.1675882221945Q2567.576999509046 564.6073428285404 2567.576999509046 576.2055779088982L2567.576999509046 576.2055779088982Q2567.576999509046 589.0413417943562 2564.037091531666 599.2005898920395Q2560.5259632939405 609.3598379897226 2554.5109977063603 616.4108742048286Q2548.49603211878 623.433130680281 2540.6391631933766 627.059377876621Q2532.753514528319 630.6856250729613 2524.0620331529644 630.6856250729613ZM2521.155279447961 616.4108742048286L2521.155279447961 616.4108742048286Q2527.3717032131162 616.4108742048286 2532.6383955697056 613.5904597187862Q2537.933867665948 610.7988249723974 2541.761573039863 605.7335907933825Q2545.5892784137777 600.6395768747141 2547.776538627443 593.1856243044592Q2549.9637988411087 585.7316717342044 2549.9637988411087 576.4070360864725L2549.9637988411087 576.4070360864725Q2549.9637988411087 568.1184710662665 2548.49603211878 561.2688930287351Q2547.0570451361054 554.4480947308571 2543.833714294914 549.5843187294167Q2540.6391631933766 544.6917629883228 2535.545149274709 542.015247200548Q2530.4799150956933 539.3099516731196 2523.428878880587 539.3099516731196L2523.428878880587 539.3099516731196Q2511.1974895278527 539.3099516731196 2496.4910425649177 552.9803280085289L2496.4910425649177 552.9803280085289L2496.4910425649177 605.8199300123429Q2503.1103826852213 611.6334374223486 2509.6433835865637 614.0221558135886Q2516.176384487907 616.4108742048286 2521.155279447961 616.4108742048286Z " fill="#7d141d" transform="matrix(0.34078822363694694,0,0,0.3407882236369469,0,110.62888606302818)"/></g></svg>