<svg xmlns="http://www.w3.org/2000/svg" version="1.1" xmlns:xlink="http://www.w3.org/1999/xlink" xmlns:svgjs="http://svgjs.dev/svgjs" width="100%" height="100%" viewBox="0 0 1000 600"><rect width="1000" height="600" x="0" y="0" fill="#e2d3f4"/><g><rect width="333.3333333333333" height="333.3333333333333" y="119.387382110868" fill="#013dc4" transform="matrix(1.2864691418074647,0,0,1.2864691418074645,0,-67.99971381360537)" x="97.16517639160156"/><path d="M188.28682877279329 361.0540501063805L229.70790188700153 211.0540528784656L295.9876745821783 211.0540528784656L339.3768542405557 361.0540501063805L288.14552696771926 361.0540501063805L282.4531572707374 332.28941599929146L243.6663190694942 332.28941599929146L237.3380995659346 361.0540501063805L188.28682877279329 361.0540501063805ZM248.23838196441045 305.4626098741536L277.24524456924337 305.4626098741536L263.0748774512248 239.84896554777262L248.23838196441045 305.4626098741536Z " fill="#e2d3f4" transform="matrix(1.2864691418074647,0,0,1.2864691418074645,0,-67.99971381360537)"/><path d="M597.4047339572891 361.0540555562279Q558.1850230700757 361.0540555562279 536.0084326207613 339.5961509085116Q513.8318421714469 318.2409156610237 513.8318421714469 285.69471578865017L513.8318421714469 285.69471578865017Q513.8318421714469 252.42983011467862 536.7271184223594 231.6906112685605Q559.622394673272 211.05406182267072 597.4047339572891 211.05406182267072L597.4047339572891 211.05406182267072Q634.3657180394797 211.05406182267072 657.2609942903922 232.8199746710719Q680.1562705413049 254.5858875194731 680.1562705413049 285.69471578865017L680.1562705413049 285.69471578865017Q680.1562705413049 320.3969730658181 658.6983658935886 340.72551431102306Q637.2404612458723 361.0540555562279 597.4047339572891 361.0540555562279L597.4047339572891 361.0540555562279Z " fill="#013dc4" transform="matrix(1.2864691418074647,0,0,1.2864691418074645,0,-67.99971381360537)"/></g></svg>